<?xml version="1.0" standalone="no"?>
<!DOCTYPE svg PUBLIC "-//W3C//DTD SVG 20010904//EN"
 "http://www.w3.org/TR/2001/REC-SVG-20010904/DTD/svg10.dtd">
<svg version="1.0" xmlns="http://www.w3.org/2000/svg"
 width="64.000000pt" height="64.000000pt" viewBox="0 0 64.000000 64.000000"
 preserveAspectRatio="xMidYMid meet">

<g transform="translate(0.000000,64.000000) scale(0.100000,-0.100000)"
fill="#000000" stroke="none">
<path d="M253 605 c-7 -8 -13 -30 -13 -50 0 -39 -4 -42 -27 -19 -14 13 -14 17
-2 24 7 5 10 12 7 16 -10 9 -38 -21 -38 -40 0 -9 5 -16 10 -16 6 0 10 -9 10
-20 0 -11 -4 -20 -10 -20 -5 0 -10 -9 -10 -20 0 -13 7 -20 20 -20 11 0 20 -4
20 -10 0 -5 -13 -10 -30 -10 -21 0 -30 -5 -30 -16 0 -20 -24 -44 -43 -44 -9 0
-18 -6 -20 -12 -4 -10 -8 -9 -16 2 -5 8 -13 11 -17 8 -6 -6 39 -58 51 -58 3 0
5 9 5 20 0 11 5 20 10 20 6 0 10 -7 10 -16 0 -9 10 -25 22 -35 11 -11 18 -22
14 -26 -4 -4 -11 -1 -15 6 -7 11 -17 5 -45 -23 -33 -32 -35 -38 -22 -51 19
-19 26 -19 26 1 0 15 23 44 34 44 3 0 6 -13 6 -30 0 -16 5 -30 10 -30 6 0 10
-4 10 -10 0 -5 -9 -10 -20 -10 -11 0 -20 -4 -20 -10 0 -5 -9 -10 -20 -10 -24
0 -25 -6 -5 -27 14 -14 18 -13 35 7 l20 23 29 -32 c16 -17 36 -31 45 -31 9 0
16 -4 16 -10 0 -5 9 -10 20 -10 11 0 20 -4 20 -10 0 -5 18 -10 40 -10 22 0 40
5 40 10 0 6 9 10 20 10 11 0 20 5 20 10 0 6 -11 10 -25 10 -26 0 -82 46 -71
57 3 4 14 -4 25 -15 23 -27 31 -28 31 -2 0 16 7 20 30 20 30 0 41 -14 18 -23
-7 -2 -10 -8 -6 -12 5 -5 17 2 28 14 17 21 21 22 35 8 8 -9 15 -27 15 -41 0
-30 5 -32 28 -9 12 12 13 18 4 21 -6 2 -12 10 -12 19 0 22 -26 43 -54 43 -14
0 -26 5 -26 10 0 6 9 10 20 10 16 0 20 7 20 30 0 17 -4 30 -10 30 -5 0 -10 14
-10 30 0 17 5 30 10 30 15 0 12 58 -2 63 -7 2 -9 8 -5 13 4 5 12 2 18 -6 8
-13 10 -13 20 0 8 11 12 12 16 3 2 -7 13 -13 23 -13 10 0 20 -6 23 -12 2 -7 8
-9 13 -5 5 4 2 12 -6 18 -13 8 -13 10 0 18 8 6 11 13 7 18 -5 4 -13 1 -18 -7
-8 -11 -12 -12 -16 -2 -2 6 -13 12 -23 12 -10 0 -21 6 -24 13 -5 10 -7 10 -12
0 -9 -20 -24 -15 -24 7 0 13 7 20 18 20 10 0 24 9 32 20 8 11 22 20 32 20 24
0 23 12 -2 30 -22 16 -27 46 -7 53 7 2 8 8 3 13 -5 5 -11 4 -13 -3 -3 -7 -13
-13 -24 -13 -25 0 -24 -8 2 -31 l21 -18 -26 -26 c-29 -29 -41 -31 -63 -10 -14
14 -13 18 6 34 12 10 21 24 21 30 0 17 -29 45 -38 37 -3 -4 0 -11 7 -16 12 -7
11 -11 -2 -25 -15 -15 -19 -15 -32 -1 -8 8 -15 24 -15 36 0 12 -6 28 -14 36
-19 18 -97 18 -113 -1z m133 -80 c14 -13 14 -17 0 -30 -21 -21 -46 -19 -46 5
0 11 -4 20 -10 20 -5 0 -10 5 -10 10 0 16 50 12 66 -5z m-46 -285 c0 -11 -4
-20 -10 -20 -5 0 -10 9 -10 20 0 11 5 20 10 20 6 0 10 -9 10 -20z m-40 -130
c0 -5 -4 -10 -10 -10 -5 0 -10 5 -10 10 0 6 5 10 10 10 6 0 10 -4 10 -10z"/>
<path d="M460 610 c0 -5 5 -10 10 -10 6 0 10 5 10 10 0 6 -4 10 -10 10 -5 0
-10 -4 -10 -10z"/>
<path d="M33 545 c-17 -19 -16 -25 3 -25 9 0 29 -13 44 -30 17 -18 38 -30 54
-30 14 0 26 2 26 5 0 12 -50 55 -62 55 -8 0 -20 9 -28 20 -17 23 -21 24 -37 5z"/>
<path d="M560 450 c0 -5 5 -10 10 -10 6 0 10 5 10 10 0 6 -4 10 -10 10 -5 0
-10 -4 -10 -10z"/>
<path d="M100 430 c0 -5 5 -10 10 -10 6 0 10 5 10 10 0 6 -4 10 -10 10 -5 0
-10 -4 -10 -10z"/>
<path d="M520 290 c0 -5 5 -10 10 -10 6 0 10 5 10 10 0 6 -4 10 -10 10 -5 0
-10 -4 -10 -10z"/>
<path d="M40 270 c0 -5 5 -10 10 -10 6 0 10 5 10 10 0 6 -4 10 -10 10 -5 0
-10 -4 -10 -10z"/>
<path d="M480 264 c0 -9 14 -29 30 -44 17 -15 30 -33 30 -40 0 -16 30 -44 38
-35 4 4 1 10 -5 12 -15 5 -17 43 -3 43 6 0 10 5 10 10 0 6 -7 10 -16 10 -9 0
-29 14 -44 30 -32 34 -40 37 -40 14z"/>
<path d="M580 260 c0 -11 5 -20 10 -20 6 0 10 9 10 20 0 11 -4 20 -10 20 -5 0
-10 -9 -10 -20z"/>
<path d="M400 10 c0 -5 5 -10 10 -10 6 0 10 5 10 10 0 6 -4 10 -10 10 -5 0
-10 -4 -10 -10z"/>
</g>
</svg>
